<?xml version="1.0" encoding="UTF-8"?>
<svg width="22px" height="24px" viewBox="0 0 22 24" version="1.1" xmlns="http://www.w3.org/2000/svg" xmlns:xlink="http://www.w3.org/1999/xlink">
    <!-- Generator: Sketch 56.3 (81716) - https://sketch.com -->
    <title>Shape</title>
    <desc>Created with Sketch.</desc>
    <g id="-实时感知监控" stroke="none" stroke-width="1" fill="none" fill-rule="evenodd">
        <g id="02总览-选中站点" transform="translate(-1152.000000, -727.000000)" fill="#F611FF" fill-rule="nonzero">
            <g id="Group-13" transform="translate(1109.000000, 699.000000)">
                <g id="Group-9" transform="translate(29.000000, 15.000000)">
                    <path d="M29.0798011,25.9976753 L27.8569209,27.22459 L26.9636113,26.4367816 L25.8794976,25.3949804 L27.8222293,23.3329028 C30.0034659,24.2756899 32.2670952,23.8925481 33.7891907,22.5838392 C35.2852675,21.296655 35.2852675,18.7610315 35.2852675,18.7610315 L34.0884061,18.2960954 L31.7857487,20.6078609 L28.4293329,17.3059538 L30.7449996,14.9769684 L30.2723261,13.7931034 C30.2723261,13.7931034 27.9523229,13.7931034 26.4085451,15.3170606 C24.9731786,16.7333936 24.5178509,19.058074 25.5282448,21.1632012 L23.5117934,23.1176547 L20.6107053,20.3237333 L20.4372472,18.3649748 L17.7226266,16.6257695 L16.9550741,17.3877481 L16.1918581,18.1497266 L15.4243057,18.9117052 L17.1718969,21.6152224 L19.0192265,21.774506 L21.9940343,24.5899522 L14.3922295,31.95144 C14.3922295,31.95144 14.1710703,33.3031986 15.0600435,34.1857161 C15.7755585,34.8960351 17.0764949,34.7496664 17.0764949,34.7496664 L24.4528041,26.9146326 L25.5239083,27.926299 L26.3174795,28.7098024 L24.795384,30.2638943 C26.9809571,32.4335959 29.1665302,34.6076026 31.3477668,36.7816092 C33.5983867,36.1789143 34.8949866,34.6291274 35.6321839,32.5196952 C33.4509473,30.3456886 31.2653742,28.1716819 29.0798011,25.9976753 M17.2542895,33.1439149 C16.9030367,33.492617 16.3349611,33.496922 15.9793719,33.1482199 C15.6281191,32.7995178 15.6237826,32.2312626 15.9750354,31.8782556 C16.3262882,31.5252486 16.8943638,31.5209436 17.2499531,31.8696457 C17.6012059,32.2269577 17.6055423,32.7909079 17.2542895,33.1439149 M31.5429073,35.1069783 L26.5733303,30.1648801 L27.3105276,29.4330363 L32.4578992,34.551638 L31.5429073,35.1069783 M33.2948349,33.7164751 L28.1474634,28.5978733 L28.8846606,27.8617246 L33.8542375,32.8038228 L33.2948349,33.7164751" id="Shape"></path>
                </g>
            </g>
        </g>
    </g>
</svg>