<?xml version="1.0" encoding="UTF-8"?>
<svg width="24px" height="21px" viewBox="0 0 24 21" version="1.1" xmlns="http://www.w3.org/2000/svg" xmlns:xlink="http://www.w3.org/1999/xlink">
    <!-- Generator: Sketch 56.3 (81716) - https://sketch.com -->
    <title>Combined Shape</title>
    <desc>Created with Sketch.</desc>
    <g id="-实时感知监控" stroke="none" stroke-width="1" fill="none" fill-rule="evenodd">
        <g id="02总览-选中站点" transform="translate(-1147.000000, -644.000000)" fill="#FFA000" fill-rule="nonzero">
            <g id="Group-14" transform="translate(1109.000000, 614.000000)">
                <g id="Group-8" transform="translate(25.000000, 15.000000)">
                    <path d="M15.8045977,33.3333333 L34.7701149,33.3333333 C35.2462225,33.3333333 35.6321839,33.7192948 35.6321839,34.1954023 C35.6321839,34.6715098 35.2462225,35.0574713 34.7701149,35.0574713 L15.8045977,35.0574713 C15.3284902,35.0574713 14.9425287,34.6715098 14.9425287,34.1954023 C14.9425287,33.7192948 15.3284902,33.3333333 15.8045977,33.3333333 Z M14.9425287,15.5172414 L35.6321839,15.5172414 C36.266994,15.5172414 36.7816092,16.0318566 36.7816092,16.6666667 L36.7816092,29.3103448 C36.7816092,29.9451549 36.266994,30.4597701 35.6321839,30.4597701 L14.9425287,30.4597701 C14.3077187,30.4597701 13.7931034,29.9451549 13.7931034,29.3103448 L13.7931034,16.6666667 C13.7931034,16.0318566 14.3077187,15.5172414 14.9425287,15.5172414 Z M26.9483917,23.2307654 L29.4835177,20.7078842 C29.7482387,20.4534431 29.8544054,20.0766542 29.7612127,19.7223367 C29.6680201,19.3680191 29.3899709,19.091313 29.0339337,18.9985704 C28.6778964,18.9058279 28.2992788,19.0114818 28.0436028,19.2749241 L25.5084768,21.7972986 L23.0935133,19.3945064 C22.8378373,19.1310641 22.4592197,19.0254101 22.1031825,19.1181527 C21.7471453,19.2108952 21.4690961,19.4876014 21.3759034,19.8419189 C21.2827107,20.1962365 21.3888775,20.5730253 21.6535984,20.8274664 L24.0680527,23.2307654 L21.5624581,25.7242577 C21.3052421,25.9804124 21.2048848,26.3536694 21.2991899,26.7034265 C21.3934951,27.0531835 21.6681354,27.3263042 22.0196566,27.4199065 C22.3711778,27.5135089 22.7461753,27.4133725 23.0033914,27.1572178 L25.5084768,24.6637254 L28.1342339,27.2768 C28.38991,27.5402423 28.7685276,27.6458963 29.1245648,27.5531537 C29.480602,27.4604112 29.7586512,27.183705 29.8518439,26.8293875 C29.9450366,26.4750699 29.8388698,26.0982811 29.5741489,25.84384 L26.9483917,23.2307654 Z" id="Combined-Shape"></path>
                </g>
            </g>
        </g>
    </g>
</svg>