<?xml version="1.0" encoding="UTF-8"?>
<svg width="22px" height="24px" viewBox="0 0 22 24" version="1.1" xmlns="http://www.w3.org/2000/svg" xmlns:xlink="http://www.w3.org/1999/xlink">
    <!-- Generator: Sketch 56.3 (81716) - https://sketch.com -->
    <title>Combined Shape</title>
    <desc>Created with Sketch.</desc>
    <g id="-实时感知监控" stroke="none" stroke-width="1" fill="none" fill-rule="evenodd">
        <g id="02总览-选中站点" transform="translate(-1148.000000, -557.000000)" fill="#FF4949" fill-rule="nonzero">
            <g id="Group-15" transform="translate(1109.000000, 529.000000)">
                <g id="Group-6" transform="translate(25.000000, 15.000000)">
                    <path d="M34.6982759,31.0344828 C34.896654,31.0344828 35.0574713,31.1953 35.0574713,31.3936782 L35.0574713,32.8304598 C35.0574713,33.0288379 34.896654,33.1896552 34.6982759,33.1896552 L15.3017241,33.1896552 C15.103346,33.1896552 14.9425287,33.0288379 14.9425287,32.8304598 L14.9425287,31.3936782 C14.9425287,31.1953 15.103346,31.0344828 15.3017241,31.0344828 L17.816092,31.0344828 L17.816092,22.4137931 C17.8278823,18.8684108 20.41827,15.8589898 23.9224138,15.3196839 L23.9224138,14.8706897 C23.9224138,14.2755552 24.4048656,13.7931034 25,13.7931034 C25.5951344,13.7931034 26.0775862,14.2755552 26.0775862,14.8706897 L26.0775862,15.3196839 C29.58173,15.8589898 32.1721177,18.8684108 32.183908,22.4137931 L32.183908,31.0344828 L34.6982759,31.0344828 Z M26.795977,34.6264368 C26.9943552,34.6264368 27.1551724,34.787254 27.1551724,34.9856322 C27.1551724,35.9775229 26.3510861,36.7816092 25.3591954,36.7816092 L24.6408046,36.7816092 C23.6489139,36.7816092 22.8448276,35.9775229 22.8448276,34.9856322 C22.8448276,34.787254 23.0056448,34.6264368 23.204023,34.6264368 L26.795977,34.6264368 Z M26.6954023,21.7744253 L23.3045977,21.7744253 C23.1766564,21.7751949 23.0587824,21.8439611 22.9951453,21.9549561 C22.9315082,22.0659511 22.9317155,22.2024173 22.9956897,22.3132184 L24.691092,25.2478448 C24.7557966,25.3568917 24.8732013,25.423745 25,25.423745 C25.1267987,25.423745 25.2442034,25.3568917 25.308908,25.2478448 L27.0043103,22.3132184 C27.0682845,22.2024173 27.0684918,22.0659511 27.0048547,21.9549561 C26.9412176,21.8439611 26.8233436,21.7751949 26.6954023,21.7744253 Z M24.1989943,27.3024425 C24.1989943,27.5809146 24.3475573,27.8382335 24.5887213,27.9774695 C24.8298852,28.1167056 25.1270114,28.1167056 25.3681753,27.9774695 C25.6093392,27.8382335 25.7579023,27.5809146 25.7579023,27.3024425 C25.7579023,26.871962 25.4089288,26.5229885 24.9784483,26.5229885 C24.5479677,26.5229885 24.1989943,26.871962 24.1989943,27.3024425 Z" id="Combined-Shape"></path>
                </g>
            </g>
        </g>
    </g>
</svg>